<svg width="880" height="582" viewBox="0 0 880 582" fill="none" xmlns="http://www.w3.org/2000/svg">
<g id="undraw_Mobile_application_mr4r 1" clip-path="url(#clip0)">
<path id="Vector" d="M643 581.351C618.683 577.544 595.302 574.306 572.857 571.636L581.5 554.351C578.5 553.351 565.5 563.351 565.5 563.351L576.5 513.351C561.5 515.351 554.5 566.351 554.5 566.351L537.5 549.351L545.868 568.598C477.187 561.381 417.922 559.129 368.103 559.645L375.5 544.851C372.5 543.851 359.5 553.851 359.5 553.851L370.5 503.851C355.5 505.851 348.5 556.851 348.5 556.851L331.5 539.851L340.363 560.236C306.238 561.228 272.185 563.97 238.341 568.452C245.722 545.456 271.5 523.351 271.5 523.351C251.679 529.517 241.368 539.563 236.031 548.875C234.951 501.631 242.219 454.568 257.5 409.851C257.5 409.851 217.5 499.851 223.5 559.851L224.261 570.509C189.462 575.937 172 581.351 172 581.351H643Z" fill="#3F3D56"/>
<g id="Ball3">
<path id="Vector_2" d="M734.672 457.486C732.299 457.486 729.979 456.782 728.005 455.464C726.032 454.145 724.494 452.271 723.586 450.078C722.678 447.886 722.44 445.473 722.903 443.145C723.366 440.817 724.509 438.679 726.187 437.001C727.865 435.323 730.004 434.18 732.331 433.717C734.659 433.254 737.072 433.491 739.265 434.4C741.457 435.308 743.331 436.846 744.65 438.819C745.969 440.793 746.672 443.113 746.672 445.486C746.669 448.668 745.403 451.718 743.154 453.968C740.904 456.217 737.854 457.483 734.672 457.486V457.486ZM734.672 435.486C732.695 435.486 730.761 436.073 729.117 437.172C727.472 438.27 726.19 439.832 725.434 441.659C724.677 443.487 724.479 445.497 724.864 447.437C725.25 449.377 726.203 451.159 727.601 452.557C729 453.956 730.782 454.908 732.721 455.294C734.661 455.68 736.672 455.482 738.499 454.725C740.326 453.968 741.888 452.686 742.987 451.042C744.086 449.397 744.672 447.464 744.672 445.486C744.669 442.835 743.615 440.293 741.74 438.418C739.865 436.544 737.324 435.489 734.672 435.486V435.486Z" fill="#3F3D56"/>
</g>
<g id="Ball2">
<path id="Vector_3" d="M207 396C204.627 396 202.307 395.296 200.333 393.978C198.36 392.659 196.822 390.785 195.913 388.592C195.005 386.4 194.768 383.987 195.231 381.659C195.694 379.331 196.836 377.193 198.515 375.515C200.193 373.837 202.331 372.694 204.659 372.231C206.987 371.768 209.4 372.005 211.592 372.913C213.785 373.822 215.659 375.36 216.978 377.333C218.296 379.307 219 381.627 219 384C218.996 387.181 217.731 390.232 215.481 392.481C213.232 394.731 210.181 395.996 207 396V396ZM207 374C205.022 374 203.089 374.586 201.444 375.685C199.8 376.784 198.518 378.346 197.761 380.173C197.004 382 196.806 384.011 197.192 385.951C197.578 387.891 198.53 389.673 199.929 391.071C201.327 392.47 203.109 393.422 205.049 393.808C206.989 394.194 209 393.996 210.827 393.239C212.654 392.482 214.216 391.2 215.315 389.556C216.414 387.911 217 385.978 217 384C216.997 381.349 215.943 378.807 214.068 376.932C212.193 375.057 209.651 374.003 207 374V374Z" fill="#3F3D56"/>
</g>
<g id="Ball4">
<path id="Vector_4" d="M794 538C791.627 538 789.307 537.296 787.333 535.978C785.36 534.659 783.822 532.785 782.913 530.592C782.005 528.4 781.768 525.987 782.231 523.659C782.694 521.331 783.836 519.193 785.515 517.515C787.193 515.837 789.331 514.694 791.659 514.231C793.987 513.768 796.4 514.005 798.592 514.913C800.785 515.822 802.659 517.36 803.978 519.333C805.296 521.307 806 523.627 806 526C805.996 529.181 804.731 532.232 802.481 534.481C800.232 536.731 797.181 537.996 794 538ZM794 516C792.022 516 790.089 516.586 788.444 517.685C786.8 518.784 785.518 520.346 784.761 522.173C784.004 524 783.806 526.011 784.192 527.951C784.578 529.891 785.53 531.673 786.929 533.071C788.327 534.47 790.109 535.422 792.049 535.808C793.989 536.194 796 535.996 797.827 535.239C799.654 534.482 801.216 533.2 802.315 531.556C803.414 529.911 804 527.978 804 526C803.997 523.349 802.943 520.807 801.068 518.932C799.193 517.057 796.651 516.003 794 516Z" fill="#3F3D56"/>
</g>
<g id="Ball1">
<path id="Vector_5" d="M111 530C108.627 530 106.307 529.296 104.333 527.978C102.36 526.659 100.822 524.785 99.9134 522.592C99.0052 520.4 98.7676 517.987 99.2306 515.659C99.6936 513.331 100.836 511.193 102.515 509.515C104.193 507.837 106.331 506.694 108.659 506.231C110.987 505.768 113.4 506.005 115.592 506.913C117.785 507.822 119.659 509.36 120.978 511.333C122.296 513.307 123 515.627 123 518C122.996 521.181 121.731 524.232 119.481 526.481C117.232 528.731 114.181 529.996 111 530V530ZM111 508C109.022 508 107.089 508.586 105.444 509.685C103.8 510.784 102.518 512.346 101.761 514.173C101.004 516 100.806 518.011 101.192 519.951C101.578 521.891 102.53 523.673 103.929 525.071C105.327 526.47 107.109 527.422 109.049 527.808C110.989 528.194 113 527.996 114.827 527.239C116.654 526.482 118.216 525.2 119.315 523.556C120.414 521.911 121 519.978 121 518C120.997 515.349 119.943 512.807 118.068 510.932C116.193 509.057 113.651 508.003 111 508V508Z" fill="#3F3D56"/>
</g>
<path id="Vector_6" d="M830.5 579.776H810.759V560.035H830.5V579.776ZM812.277 578.258H828.981V561.554H812.277V578.258Z" fill="#3F3D56"/>
<path id="Vector_7" d="M162.144 580.856L148.679 566.42L163.115 552.955L176.58 567.391L162.144 580.856ZM150.825 566.495L162.219 578.71L174.434 567.316L163.04 555.101L150.825 566.495Z" fill="#3F3D56"/>
<path id="Vector_8" d="M879.5 578.662H21.6724V580.662H879.5V578.662Z" fill="#3F3D56"/>
<path id="Vector_9" d="M553.475 133.76V199.44C553.473 200.047 553.232 200.628 552.802 201.057C552.373 201.487 551.792 201.728 551.185 201.73H549.555V543.88C549.555 553.348 545.793 562.428 539.098 569.123C532.403 575.818 523.323 579.58 513.855 579.58H300.065C295.378 579.58 290.736 578.656 286.405 576.861C282.075 575.067 278.14 572.437 274.826 569.122C271.512 565.807 268.883 561.872 267.09 557.541C265.297 553.209 264.374 548.568 264.375 543.88V213.73H263.195C262.767 213.731 262.356 213.562 262.052 213.26C261.749 212.958 261.577 212.548 261.575 212.12V174.74C261.575 174.527 261.617 174.317 261.698 174.12C261.78 173.923 261.899 173.745 262.049 173.594C262.2 173.444 262.378 173.325 262.575 173.243C262.772 173.162 262.982 173.12 263.195 173.12H264.375V159.04H263.185C262.736 159.038 262.305 158.858 261.988 158.54C261.672 158.221 261.494 157.789 261.495 157.34V120.47C261.496 120.022 261.675 119.593 261.991 119.276C262.308 118.96 262.737 118.781 263.185 118.78H264.375V99.56H263.165C262.968 99.5603 262.773 99.5217 262.591 99.4464C262.409 99.3711 262.243 99.2606 262.104 99.1213C261.964 98.9819 261.854 98.8165 261.779 98.6344C261.703 98.4523 261.665 98.2571 261.665 98.06V77.94C261.664 77.541 261.822 77.1579 262.103 76.8748C262.384 76.5917 262.766 76.4318 263.165 76.43H264.375V35.69C264.375 26.2245 268.136 17.1469 274.829 10.4538C281.522 3.76067 290.6 0.000375276 300.065 3.05179e-05H513.855C523.321 -1.22739e-05 532.4 3.75984 539.095 10.4527C545.79 17.1456 549.552 26.2235 549.555 35.69V131.47H551.185C551.792 131.472 552.373 131.713 552.802 132.143C553.232 132.572 553.473 133.153 553.475 133.76V133.76Z" fill="#3F3D56"/>
<path id="Vector_10" d="M417.26 18.3068H382.521C381.117 18.3068 379.979 19.4448 379.979 20.8487V23.8513C379.979 25.2552 381.117 26.3932 382.521 26.3932H417.26C418.664 26.3932 419.802 25.2552 419.802 23.8513V20.8487C419.802 19.4448 418.664 18.3068 417.26 18.3068Z" fill="#E6E8EC"/>
<path id="Vector_11" d="M430.41 26.9366C432.943 26.9366 434.997 24.8831 434.997 22.35C434.997 19.8169 432.943 17.7633 430.41 17.7633C427.877 17.7633 425.823 19.8169 425.823 22.35C425.823 24.8831 427.877 26.9366 430.41 26.9366Z" fill="#E6E8EC"/>
<path id="Vector_12" d="M532.46 42.7505V546.841C532.463 550.118 531.753 553.357 530.378 556.333C529.004 559.308 526.998 561.948 524.5 564.071C520.402 567.563 515.194 569.481 509.81 569.481H305.16C301.519 569.486 297.93 568.611 294.7 566.931C293.941 566.542 293.206 566.108 292.5 565.631C289.424 563.555 286.905 560.757 285.163 557.481C283.421 554.205 282.51 550.551 282.51 546.841V42.7505C282.51 39.776 283.096 36.8307 284.234 34.0826C285.372 31.3345 287.04 28.8375 289.144 26.7343C291.247 24.631 293.744 22.9626 296.492 21.8244C299.24 20.6861 302.186 20.1004 305.16 20.1005H335.79V24.0305C335.79 28.9768 337.755 33.7205 341.253 37.218C344.75 40.7156 349.494 42.6805 354.44 42.6805H458.52C463.466 42.6805 468.21 40.7156 471.708 37.218C475.205 33.7205 477.17 28.9768 477.17 24.0305V20.1005H509.81C512.785 20.0996 515.73 20.6848 518.479 21.8227C521.227 22.9606 523.725 24.629 525.828 26.7324C527.932 28.8358 529.6 31.3331 530.738 34.0816C531.876 36.8301 532.461 39.7758 532.46 42.7505Z" fill="#FAAD17"/>
<g id="Wave1">
<path id="Vector_13" opacity="0.3" d="M532.46 474.681V546.841C532.463 550.118 531.753 553.357 530.378 556.333C529.004 559.308 526.998 561.948 524.5 564.071C520.402 567.563 515.194 569.481 509.81 569.481H305.16C301.519 569.486 297.93 568.611 294.7 566.931C293.941 566.542 293.206 566.108 292.5 565.631C289.424 563.555 286.905 560.757 285.163 557.481C283.421 554.205 282.51 550.551 282.51 546.841V474.711C316.826 443.864 361.337 426.796 407.479 426.791C453.622 426.785 498.136 443.842 532.46 474.681Z" fill="white"/>
</g>
<g id="Wave2">
<path id="Vector_14" opacity="0.3" d="M520.29 566.911C517.058 568.608 513.461 569.49 509.81 569.481H305.16C301.519 569.486 297.93 568.611 294.7 566.931C303.965 544.649 319.621 525.61 339.694 512.216C359.767 498.822 383.357 491.673 407.488 491.671C431.62 491.668 455.211 498.813 475.286 512.204C495.362 525.594 511.021 544.63 520.29 566.911Z" fill="white"/>
</g>
<g id="Wave3">
<path id="Vector_15" opacity="0.3" d="M475.75 568.12C473.794 569.147 471.617 569.681 469.408 569.675H345.57C343.366 569.679 341.195 569.149 339.24 568.132C344.846 554.649 354.32 543.128 366.467 535.023C378.614 526.918 392.889 522.592 407.491 522.591C422.093 522.589 436.369 526.913 448.517 535.016C460.665 543.119 470.141 554.638 475.75 568.12Z" fill="white"/>
</g>
<path id="Vector_16" d="M459.546 215.25C439.017 215.25 416.488 211.341 398.9 198.15C374.413 179.785 344.243 180.765 323.247 184.822C309.3 187.54 295.763 192.049 282.972 198.237L282.047 196.464C294.994 190.195 308.697 185.625 322.815 182.869C344.224 178.725 375.012 177.735 400.1 196.551C447.1 231.8 531.258 200.141 532.102 199.818L532.818 201.686C517.036 207.311 500.714 211.284 484.112 213.542C475.97 214.653 467.763 215.224 459.546 215.25Z" fill="white"/>
<path id="Vector_17" opacity="0.3" d="M282.5 197.351C282.5 197.351 351.5 180.638 399.5 203.52C447.5 226.403 532.5 203.351 532.5 203.351" fill="white"/>
<path id="Vector_18" opacity="0.3" d="M347.641 223.312C339.306 223.274 330.993 222.444 322.815 220.833C308.697 218.076 294.994 213.506 282.047 207.237L282.972 205.464C295.763 211.652 309.3 216.161 323.247 218.879C344.242 222.935 374.412 223.916 398.9 205.551C423.966 186.751 459.077 186.804 484.112 190.159C500.714 192.417 517.036 196.39 532.818 202.016L532.102 203.883C531.257 203.559 447.101 171.899 400.1 207.15C383.648 219.49 364.743 223.312 347.641 223.312Z" fill="white"/>
<path id="Vector_19" opacity="0.3" d="M347.981 215.259C313.347 215.259 282.59 202.833 282.129 202.644L282.891 200.794C283.575 201.076 351.979 228.693 398.991 200.858C446.815 172.539 531.897 197.817 532.75 198.076L532.17 199.99C531.325 199.734 447.077 174.709 400.009 202.579C383.947 212.09 365.469 215.259 347.981 215.259Z" fill="white"/>
<path id="Vector_20" opacity="0.3" d="M282.51 200.181C282.51 200.181 351.5 223.063 399.5 200.181C447.5 177.299 532.46 198.019 532.46 198.019" fill="white"/>
<path id="Vector_21" d="M550.269 261.4V290.553C550.269 290.553 552.601 323.204 565.429 339.529C565.429 339.529 586.419 369.265 589.334 362.852L585.743 341.736L573.591 330.201L567.178 294.051L565.429 261.4H550.269Z" fill="#FFB8B8"/>
<path id="Vector_22" d="M679.124 524.941V546.514L661.633 552.928V527.856L679.124 524.941Z" fill="#FFB8B8"/>
<path id="Vector_23" d="M643.558 522.609L655.219 548.846L638.894 555.843L635.395 530.189L643.558 522.609Z" fill="#FFB8B8"/>
<path id="Vector_24" d="M672.711 321.455C672.711 321.455 696.033 531.938 687.287 532.521C678.541 533.104 661.633 544.182 661.633 536.602C661.633 529.023 648.222 430.486 648.222 430.486L635.395 379.76V449.727L648.806 529.023C648.806 529.023 635.978 545.931 626.649 536.019L606.826 458.473C606.826 458.473 580.588 340.696 581.754 331.367C581.754 331.367 641.809 280.058 672.711 321.455Z" fill="#2F2E41"/>
<path id="Vector_25" d="M668.046 547.68C668.046 547.68 672.711 537.768 683.206 544.182L691.952 554.677C691.952 554.677 714.5 573.351 698.5 577.351C682.009 581.473 672.128 577.087 672.128 577.087C672.128 577.087 669.213 575.338 666.88 575.338C664.548 575.338 659.301 571.257 659.301 570.091C659.301 568.925 661.05 548.263 661.05 548.263C661.71 547.942 662.452 547.825 663.18 547.929C663.907 548.033 664.587 548.353 665.131 548.847C666.88 550.596 668.046 547.68 668.046 547.68Z" fill="#2F2E41"/>
<path id="Vector_26" d="M633.646 544.182C633.646 544.182 644.724 535.436 649.972 545.348C649.972 545.348 653.276 546.514 653.664 545.348C654.053 544.182 656.968 543.599 656.968 550.013C656.968 556.426 660.134 572.423 657.219 573.006C654.304 573.589 651.389 575.338 651.972 577.67C652.555 580.003 648.806 580.331 635.395 579.748C621.985 579.165 621.402 573.918 621.402 573.918C621.402 573.918 621.402 566.338 624.9 562.257C628.399 558.175 633.646 544.182 633.646 544.182Z" fill="#2F2E41"/>
<path id="Vector_27" d="M612.073 162.28C612.073 162.28 609.158 183.854 627.816 191.433C646.473 199.013 586.419 224.084 580.588 209.508C574.758 194.932 581.754 190.267 581.754 190.267C581.754 190.267 587.585 184.437 582.337 168.694L612.073 162.28Z" fill="#FFB8B8"/>
<path id="Vector_28" d="M593.415 177.44C607.584 177.44 619.07 165.954 619.07 151.785C619.07 137.617 607.584 126.131 593.415 126.131C579.247 126.131 567.761 137.617 567.761 151.785C567.761 165.954 579.247 177.44 593.415 177.44Z" fill="#FFB8B8"/>
<path id="Vector_29" d="M623.151 198.43C623.151 198.43 605.659 207.759 588.751 200.762C571.842 193.765 572.425 224.084 572.425 224.084L581.171 246.824L641.809 240.993L637.727 206.01L623.151 198.43Z" fill="#F2F2F2"/>
<path id="Vector_30" d="M614.461 178.48C617.566 179.139 620.484 180.488 622.998 182.427C625.511 184.367 627.557 186.847 628.982 189.684L656.968 198.43L663.965 208.342L655.802 280.058C655.802 280.058 670.962 294.634 670.962 302.797C670.962 310.96 689.619 338.946 680.291 335.448C670.962 331.95 654.053 319.706 654.053 319.706C654.053 319.706 611.49 321.455 598.08 333.116C584.669 344.777 579.422 341.279 579.422 341.279C579.422 341.279 565.429 280.641 564.846 271.312C564.263 261.983 547.937 206.01 547.937 206.01L577.09 189.684L584.515 181.259L605.076 214.172L623.734 191.433C623.734 191.433 614.516 184.184 614.461 178.48Z" fill="#3F3D56"/>
<path id="Vector_31" d="M672.711 253.237L676.209 271.895C676.209 271.895 691.952 330.201 689.619 350.024C689.619 350.024 691.369 394.337 681.457 389.089C671.545 383.842 676.792 351.774 676.792 351.774L662.799 294.051L655.219 260.234L672.711 253.237Z" fill="#FFB8B8"/>
<path id="Vector_32" d="M658.134 204.844L663.965 208.342C663.965 208.342 686.121 254.403 680.874 257.902C675.626 261.4 652.887 268.98 652.887 268.98L658.134 204.844Z" fill="#3F3D56"/>
<path id="Vector_33" d="M561.93 206.01L548.228 205.718L545.022 211.257L549.103 267.814L570.093 272.478L561.93 206.01Z" fill="#3F3D56"/>
<path id="Vector_34" d="M614.306 130.088L618.93 128.407C618.93 128.407 609.262 118.738 595.81 119.579L599.593 115.796C599.593 115.796 590.345 112.433 581.938 121.261C577.518 125.901 572.404 131.356 569.217 137.501H564.265L566.331 141.634L559.098 145.768L566.522 145.025C565.819 148.594 566.061 152.285 567.225 155.731L568.906 160.355C568.906 160.355 575.632 146.903 575.632 145.222V149.425C575.632 149.425 580.256 145.642 580.256 143.12L582.778 146.062L584.039 141.438L599.593 146.062L597.071 142.279L606.74 143.54L602.956 138.916C602.956 138.916 613.886 144.381 614.306 149.005C614.727 153.629 617.612 159.657 617.612 159.657L621.11 155.575C621.11 155.575 626.497 136.394 614.306 130.088Z" fill="#2F2E41"/>
<path id="Vector_35" d="M614.988 157.325C616.115 157.325 617.029 154.975 617.029 152.077C617.029 149.179 616.115 146.83 614.988 146.83C613.861 146.83 612.948 149.179 612.948 152.077C612.948 154.975 613.861 157.325 614.988 157.325Z" fill="#FFB8B8"/>
<path id="Vector_36" d="M41.634 547.016C54.0624 570.065 80.44 579.96 80.44 579.96C80.44 579.96 86.6671 552.484 74.2387 529.435C61.8103 506.386 35.4327 496.492 35.4327 496.492C35.4327 496.492 29.2056 523.967 41.634 547.016Z" fill="#3F3D56"/>
<path id="Vector_37" d="M50.1765 539.433C72.6149 552.933 81.2567 579.747 81.2567 579.747C81.2567 579.747 53.5186 584.674 31.0802 571.174C8.64174 557.675 0 530.861 0 530.861C0 530.861 27.7381 525.934 50.1765 539.433Z" fill="#FAAD17"/>
<path id="Vector_38" opacity="0.3" d="M282.51 197.351C282.51 197.351 351.5 161.351 399.5 197.351C447.5 233.351 532.46 200.752 532.46 200.752" fill="white"/>
<path id="Vector_39" d="M407.75 563.675C413.825 563.675 418.75 558.75 418.75 552.675C418.75 546.6 413.825 541.675 407.75 541.675C401.675 541.675 396.75 546.6 396.75 552.675C396.75 558.75 401.675 563.675 407.75 563.675Z" fill="white"/>
</g>
<defs>
<clipPath id="clip0">
<rect width="879.5" height="581.351" fill="white"/>
</clipPath>
</defs>
</svg>
