<svg width="1076" height="761" viewBox="0 0 1076 761" fill="none" xmlns="http://www.w3.org/2000/svg">
<g id="undraw_web_developer_p3e5 1" clip-path="url(#clip0)">
<path id="Vector" d="M864.095 707.792C857.111 734.593 832.637 751.342 832.637 751.342C832.637 751.342 819.488 724.637 826.472 697.836C833.456 671.035 857.929 654.286 857.929 654.286C857.929 654.286 871.079 680.991 864.095 707.792Z" fill="#3F3D56"/>
<path id="Vector_2" d="M853.501 702.122C833.94 721.597 831.751 751.327 831.751 751.327C831.751 751.327 861.278 749.481 880.839 730.006C900.401 710.531 902.589 680.802 902.589 680.802C902.589 680.802 873.063 682.647 853.501 702.122Z" fill="#FAAD17"/>
<path id="Vector_3" d="M144.725 606.408H181.565L272.347 570.611C272.347 570.611 336.816 544.094 331.553 594.475C326.29 644.857 317.08 712.474 317.08 712.474C317.08 712.474 288.135 699.215 272.347 703.193C256.559 707.17 267.084 622.318 267.084 622.318C267.084 622.318 138.147 684.631 126.306 676.676C114.465 668.721 111.833 613.037 111.833 613.037L144.725 606.408Z" fill="#2F2E41"/>
<path id="Vector_4" opacity="0.1" d="M144.725 606.408H181.565L272.347 570.611C272.347 570.611 336.816 544.094 331.553 594.475C326.29 644.857 317.08 712.474 317.08 712.474C317.08 712.474 288.135 699.215 272.347 703.193C256.559 707.17 267.084 622.318 267.084 622.318C267.084 622.318 138.147 684.631 126.306 676.676C114.465 668.721 111.833 613.037 111.833 613.037L144.725 606.408Z" fill="black"/>
<path id="Vector_5" d="M202.766 490.152L247.349 554.701L351.288 642.205C351.288 642.205 447.333 664.744 434.177 680.654C421.02 696.564 340.763 664.744 340.763 664.744C340.763 664.744 221.035 577.24 217.088 570.611C213.141 563.982 169.724 501.668 169.724 501.668L202.766 490.152Z" fill="#A0616A"/>
<path id="Vector_6" opacity="0.1" d="M201.766 490.152L246.349 554.701L350.288 642.205C350.288 642.205 446.333 664.744 433.177 680.654C420.02 696.564 339.763 664.744 339.763 664.744C339.763 664.744 220.035 577.24 216.088 570.611C212.141 563.982 168.724 501.668 168.724 501.668L201.766 490.152Z" fill="black"/>
<path id="Vector_7" d="M176.302 438.029L205.247 495.039C205.247 495.039 198.669 522.881 188.143 525.533C177.618 528.185 132.884 491.062 132.884 491.062L176.302 438.029Z" fill="#D0CDE1"/>
<path id="Vector_8" opacity="0.1" d="M175.302 438.029L204.247 495.039C204.247 495.039 197.669 522.881 187.143 525.533C176.618 528.185 131.884 491.062 131.884 491.062L175.302 438.029Z" fill="black"/>
<path id="Vector_9" d="M529.42 576.89L537.97 612.431C538.065 612.827 538.05 613.242 537.927 613.631L499.142 735.768C498.988 736.252 498.675 736.668 498.254 736.947C497.832 737.226 497.329 737.351 496.828 737.301C496.326 737.251 495.857 737.03 495.498 736.673C495.139 736.317 494.912 735.847 494.855 735.342L489.489 687.762C489.454 687.446 489.486 687.126 489.584 686.824L525.184 576.725C525.333 576.266 525.626 575.868 526.019 575.592C526.413 575.316 526.885 575.176 527.364 575.195C527.843 575.213 528.303 575.389 528.674 575.695C529.045 576.001 529.307 576.421 529.42 576.89Z" fill="#2F2E41"/>
<path id="Vector_10" d="M526.275 579.891L534.168 610.386L499.96 721.754L492.067 687.283L526.275 579.891Z" fill="#F2F2F2"/>
<path id="Vector_11" d="M353.92 745.619C355.235 749.596 490.751 744.293 492.067 742.967C493.214 741.307 494.184 739.529 494.961 737.664C496.198 735.012 497.329 732.361 497.329 732.361L492.067 689.431L357.867 684.631C357.867 684.631 354.512 721.012 353.827 737.664C353.657 741.867 353.657 744.823 353.92 745.619Z" fill="#2F2E41"/>
<path id="Vector_12" opacity="0.1" d="M474.963 695.238L477.594 732.361H418.388V695.238H474.963Z" fill="black"/>
<path id="Vector_13" opacity="0.1" d="M398.653 707.17L399.006 707.099L397.337 723.081H364.445V707.17H398.653Z" fill="black"/>
<path id="Vector_14" opacity="0.1" d="M353.92 745.619C355.235 749.596 490.751 744.293 492.067 742.967C493.214 741.307 494.184 739.529 494.961 737.664H353.827C353.657 741.867 353.657 744.823 353.92 745.619Z" fill="black"/>
<path id="Vector_15" d="M196.037 419.467C228.736 419.467 255.243 392.756 255.243 359.805C255.243 326.855 228.736 300.143 196.037 300.143C163.339 300.143 136.831 326.855 136.831 359.805C136.831 392.756 163.339 419.467 196.037 419.467Z" fill="#A0616A"/>
<path id="Vector_16" d="M192.09 412.838C192.09 412.838 172.355 447.309 168.408 465.871C164.461 484.432 109.202 428.748 109.202 428.748L101.966 409.524C101.966 409.524 153.935 384.996 149.988 365.109C146.041 345.221 192.09 412.838 192.09 412.838Z" fill="#A0616A"/>
<path id="Vector_17" d="M202.616 516.252L256.559 587.846L385.496 684.631C385.496 684.631 478.91 704.519 457.859 719.103C436.808 733.687 376.286 705.844 376.286 705.844C376.286 705.844 246.033 635.576 218.404 606.408C190.775 577.24 139.463 528.184 139.463 528.184L202.616 516.252Z" fill="#A0616A"/>
<path id="Vector_18" d="M130.253 627.621L146.041 652.812L240.267 622.939C260.942 616.385 283.612 618.796 301.95 630.438C318.396 640.879 328.922 657.452 305.239 681.98C257.875 731.035 226.298 704.518 226.298 704.518C226.298 704.518 67.1 780.09 40.7863 742.967C14.4726 705.844 13.1569 687.283 13.1569 687.283C13.1569 687.283 114.465 623.643 130.253 627.621Z" fill="#2F2E41"/>
<path id="Vector_19" d="M327.606 715.125C327.606 715.125 369.708 742.967 319.712 756.226C269.716 769.484 232.877 750.922 232.877 750.922C232.877 750.922 189.459 750.922 189.459 728.383C189.459 705.844 203.931 703.193 203.931 703.193L248.665 709.822C248.665 709.822 302.608 695.238 327.606 715.125Z" fill="#D0CDE1"/>
<path id="Vector_20" d="M244.607 344.797C248.636 346.607 252.632 348.75 257.013 349.275C261.395 349.801 266.383 348.259 268.457 344.335C269.576 342.215 269.704 339.722 269.756 337.321C269.915 330.04 269.392 322.17 264.814 316.536C261.9 312.95 257.647 310.69 254.631 307.191C252.47 304.684 251.032 301.646 249.483 298.715C243.618 287.614 234.933 276.944 222.863 273.744C217.823 272.408 212.536 272.473 207.325 272.547L176.929 272.979C172.01 273.049 167.016 273.13 162.307 274.565C152.524 277.546 145.4 285.836 138.876 293.765C133.995 299.696 129.101 305.689 125.438 312.453C120.186 322.324 117.531 333.386 117.725 344.584C117.684 347.456 118.052 350.319 118.817 353.086C119.713 355.623 120.822 358.079 122.133 360.426C127.833 371.708 131.218 385.8 124.799 396.683C135.95 392.093 146.983 386.074 154.339 376.462C157.63 372.162 160.211 367.128 164.596 363.973C168.982 360.817 176.127 360.543 178.941 365.175C179.908 367.048 180.406 369.131 180.392 371.243C180.597 374.719 180.592 378.329 182.054 381.484C183.517 384.64 187.001 387.185 190.327 386.241C196.056 384.615 195.507 375.756 199.919 371.731C203.27 368.675 208.439 369.259 212.744 367.872C217.76 366.255 221.523 361.876 223.667 357.03C225.297 353.346 225.274 343.706 228.358 341.711C232.226 339.209 241.021 343.186 244.607 344.797Z" fill="#2F2E41"/>
<path id="Vector_21" d="M97.2658 403.235C99.9293 402.518 102.733 402.526 105.393 403.255C113.839 405.54 132.772 411.589 136.831 420.793C142.094 432.725 160.514 451.287 160.514 451.287C160.514 451.287 185.512 476.477 180.249 493.713C174.986 510.949 155.251 530.836 155.251 530.836C155.251 530.836 160.514 613.037 134.2 634.25C107.886 655.463 97.3607 640.879 97.3607 660.766C97.3607 680.654 15.7882 742.967 0 704.519C0 704.519 7.89412 632.924 5.26275 607.734C2.66932 582.906 6.46596 428.006 97.2658 403.235Z" fill="#D0CDE1"/>
<path id="Vector_22" d="M139.463 436.703C139.463 436.703 219.72 496.365 205.247 521.555C205.247 521.555 156.567 545.42 146.041 544.094C135.516 542.768 94.7294 496.365 84.2039 492.387C73.6785 488.41 68.4157 416.816 139.463 436.703Z" fill="#D0CDE1"/>
<g id="Circle">
<path id="Vector_23" d="M498.034 304.77C533.931 304.77 563.03 275.446 563.03 239.273C563.03 203.1 533.931 173.776 498.034 173.776C462.138 173.776 433.038 203.1 433.038 239.273C433.038 275.446 462.138 304.77 498.034 304.77Z" fill="#FAAD17"/>
</g>
<path id="Vector_24" d="M1034.87 154.21H670.641V77.4083H1034.87V154.21ZM672.246 152.593H1033.26V79.0251H672.246V152.593Z" fill="#3F3D56"/>
<g id="Rectangle">
<path id="Vector_25" d="M1008.39 92.7687H645.771V167.954H1008.39V92.7687Z" fill="#FAAD17"/>
</g>
<path id="Vector_26" d="M416.54 21.0195C419.642 21.0195 422.156 18.4858 422.156 15.3603C422.156 12.2349 419.642 9.70117 416.54 9.70117C413.439 9.70117 410.924 12.2349 410.924 15.3603C410.924 18.4858 413.439 21.0195 416.54 21.0195Z" fill="#FAAD17"/>
<path id="Vector_27" d="M435.794 21.0195C438.896 21.0195 441.41 18.4858 441.41 15.3603C441.41 12.2349 438.896 9.70117 435.794 9.70117C432.693 9.70117 430.179 12.2349 430.179 15.3603C430.179 18.4858 432.693 21.0195 435.794 21.0195Z" fill="#FAAD17"/>
<path id="Vector_28" d="M455.049 21.0195C458.15 21.0195 460.665 18.4858 460.665 15.3603C460.665 12.2349 458.15 9.70117 455.049 9.70117C451.947 9.70117 449.433 12.2349 449.433 15.3603C449.433 18.4858 451.947 21.0195 455.049 21.0195Z" fill="#FAAD17"/>
<path id="Vector_29" d="M1076.5 443.026H401V0H1076.5V443.026ZM402.605 441.409H1074.9V1.61689H402.605V441.409Z" fill="#3F3D56"/>
<path id="Vector_30" d="M1075.2 24.524H401.297V26.1409H1075.2V24.524Z" fill="#3F3D56"/>
<path id="Vector_31" d="M418.145 19.4026C416.875 19.4026 415.635 19.0233 414.579 18.3126C413.524 17.602 412.701 16.5919 412.215 15.4101C411.73 14.2283 411.602 12.9279 411.85 11.6733C412.098 10.4187 412.709 9.26633 413.607 8.36183C414.504 7.45733 415.648 6.84136 416.893 6.5918C418.138 6.34225 419.428 6.47033 420.601 6.95984C421.774 7.44936 422.776 8.27832 423.481 9.3419C424.187 10.4055 424.563 11.6559 424.563 12.9351C424.561 14.6498 423.884 16.2936 422.681 17.5061C421.478 18.7186 419.846 19.4006 418.145 19.4026ZM418.145 8.08442C417.193 8.08442 416.262 8.3689 415.471 8.9019C414.679 9.43489 414.062 10.1925 413.698 11.0788C413.333 11.9651 413.238 12.9405 413.424 13.8814C413.609 14.8223 414.068 15.6866 414.741 16.365C415.414 17.0434 416.272 17.5054 417.206 17.6925C418.14 17.8797 419.107 17.7836 419.987 17.4165C420.866 17.0493 421.618 16.4276 422.147 15.6299C422.676 14.8323 422.958 13.8944 422.958 12.9351C422.957 11.6491 422.449 10.4161 421.547 9.50679C420.645 8.59744 419.421 8.08591 418.145 8.08442V8.08442Z" fill="#3F3D56"/>
<path id="Vector_32" d="M437.399 19.4026C436.13 19.4026 434.889 19.0233 433.833 18.3126C432.778 17.602 431.955 16.5919 431.47 15.4101C430.984 14.2283 430.857 12.9279 431.104 11.6733C431.352 10.4187 431.963 9.26633 432.861 8.36183C433.758 7.45733 434.902 6.84136 436.147 6.5918C437.392 6.34225 438.682 6.47033 439.855 6.95984C441.028 7.44936 442.03 8.27832 442.736 9.3419C443.441 10.4055 443.817 11.6559 443.817 12.9351C443.815 14.6498 443.138 16.2936 441.935 17.5061C440.732 18.7186 439.101 19.4006 437.399 19.4026V19.4026ZM437.399 8.08442C436.447 8.08442 435.516 8.3689 434.725 8.9019C433.933 9.43489 433.316 10.1925 432.952 11.0788C432.588 11.9651 432.492 12.9405 432.678 13.8814C432.864 14.8223 433.322 15.6866 433.995 16.365C434.669 17.0434 435.526 17.5054 436.46 17.6925C437.394 17.8797 438.362 17.7836 439.241 17.4165C440.121 17.0493 440.873 16.4276 441.402 15.6299C441.93 14.8323 442.213 13.8944 442.213 12.9351C442.211 11.6491 441.704 10.4161 440.801 9.50679C439.899 8.59744 438.675 8.08591 437.399 8.08442V8.08442Z" fill="#3F3D56"/>
<path id="Vector_33" d="M456.653 19.4026C455.384 19.4026 454.143 19.0233 453.088 18.3126C452.032 17.602 451.21 16.5919 450.724 15.4101C450.238 14.2283 450.111 12.9279 450.359 11.6733C450.606 10.4187 451.218 9.26633 452.115 8.36183C453.013 7.45733 454.156 6.84136 455.401 6.59181C456.646 6.34225 457.937 6.47033 459.11 6.95984C460.282 7.44935 461.285 8.2783 461.99 9.34188C462.695 10.4055 463.072 11.6559 463.072 12.9351C463.07 14.6497 462.393 16.2936 461.19 17.5061C459.986 18.7186 458.355 19.4006 456.653 19.4026V19.4026ZM456.653 8.08441C455.701 8.08441 454.771 8.3689 453.979 8.90189C453.188 9.43489 452.571 10.1925 452.206 11.0788C451.842 11.9651 451.747 12.9404 451.932 13.8814C452.118 14.8223 452.577 15.6866 453.25 16.365C453.923 17.0434 454.781 17.5053 455.714 17.6925C456.648 17.8797 457.616 17.7836 458.496 17.4165C459.375 17.0494 460.127 16.4276 460.656 15.6299C461.185 14.8323 461.467 13.8944 461.467 12.9351C461.466 11.649 460.958 10.4161 460.056 9.50679C459.153 8.59744 457.93 8.08591 456.653 8.08441V8.08441Z" fill="#3F3D56"/>
<path id="Vector_34" d="M613.678 25.3325H612.073V442.845H613.678V25.3325Z" fill="#3F3D56"/>
<g id="WebText3">
<path id="Vector_35" d="M806.625 355.917H688.692V372.085H806.625V355.917Z" fill="#F2F2F2"/>
<path id="Vector_36" d="M813.845 364.809H694.308V347.024H813.845V364.809ZM695.913 363.192H812.241V348.641H695.913V363.192Z" fill="#3F3D56"/>
</g>
<g id="WebText2">
<path id="Vector_37" d="M992.348 291.645H689.093V307.814H992.348V291.645Z" fill="#F2F2F2"/>
<path id="Vector_38" d="M999.569 302.155H694.709V284.369H999.569V302.155ZM696.314 300.538H997.964V285.986H696.314V300.538Z" fill="#3F3D56"/>
</g>
<g id="WebText1">
<path id="Vector_39" d="M806.625 230.608H688.692V246.777H806.625V230.608Z" fill="#F2F2F2"/>
<path id="Vector_40" d="M991.947 230.608H874.015V246.777H991.947V230.608Z" fill="#F2F2F2"/>
<path id="Vector_41" d="M813.845 239.501H694.308V221.715H813.845V239.501ZM695.913 237.884H812.241V223.332H695.913V237.884Z" fill="#3F3D56"/>
<path id="Vector_42" d="M999.168 239.501H879.631V221.715H999.168V239.501ZM881.235 237.884H997.563V223.332H881.235V237.884Z" fill="#3F3D56"/>
</g>
<path id="Vector_43" d="M509.034 287.64C495.981 287.64 483.221 283.739 472.368 276.432C461.515 269.124 453.056 258.738 448.061 246.585C443.066 234.433 441.759 221.061 444.306 208.161C446.852 195.26 453.138 183.41 462.367 174.11C471.597 164.809 483.356 158.475 496.158 155.909C508.96 153.343 522.23 154.66 534.289 159.693C546.348 164.727 556.656 173.251 563.907 184.187C571.159 195.124 575.03 207.982 575.03 221.135C575.01 238.767 568.05 255.671 555.678 268.139C543.306 280.607 526.531 287.62 509.034 287.64ZM509.034 156.646C496.376 156.646 484.003 160.428 473.479 167.514C462.955 174.601 454.753 184.672 449.909 196.456C445.065 208.24 443.798 221.207 446.267 233.716C448.736 246.226 454.831 257.717 463.781 266.736C472.731 275.755 484.134 281.897 496.549 284.385C508.963 286.874 521.83 285.596 533.524 280.715C545.218 275.834 555.212 267.569 562.244 256.963C569.276 246.358 573.03 233.89 573.03 221.135C573.011 204.038 566.262 187.646 554.264 175.556C542.267 163.466 526.001 156.666 509.034 156.646Z" fill="#3F3D56"/>
<path id="Vector_44" d="M1031 750.148H748.019V752.163H1031V750.148Z" fill="#3F3D56"/>
</g>
<defs>
<clipPath id="clip0">
<rect width="1076" height="761" fill="white"/>
</clipPath>
</defs>
</svg>
