<svg width="972" height="502" viewBox="0 0 972 502" fill="none" xmlns="http://www.w3.org/2000/svg">
<g id="undraw_responsive_6c8s 1" clip-path="url(#clip0)">
<g id="Group" opacity="0.7">
<path id="Vector" opacity="0.7" d="M738.41 0H232.03C227.69 0.0158864 223.534 1.75446 220.476 4.83353C217.417 7.91259 215.707 12.0801 215.72 16.42V364.94C215.707 369.28 217.417 373.447 220.476 376.526C223.534 379.606 227.69 381.344 232.03 381.36H406.19V441.52H398.25C397.16 441.524 396.081 441.743 395.076 442.163C394.07 442.584 393.158 443.199 392.39 443.972C391.622 444.746 391.014 445.663 390.6 446.671C390.187 447.68 389.976 448.76 389.98 449.85V461.92H406.19V469.06H564.25V461.92H580.46V449.85C580.464 448.76 580.253 447.68 579.84 446.671C579.426 445.663 578.818 444.746 578.05 443.972C577.282 443.199 576.369 442.584 575.364 442.163C574.358 441.743 573.28 441.524 572.19 441.52H564.72V441H564.21V381.36H738.41C742.75 381.344 746.906 379.606 749.964 376.526C753.023 373.447 754.733 369.28 754.72 364.94V16.42C754.733 12.0801 753.023 7.91259 749.964 4.83353C746.906 1.75446 742.75 0.0158864 738.41 0Z" fill="url(#paint0_linear)"/>
</g>
<path id="Vector_2" d="M563.72 371H407.72V463H563.72V371Z" fill="#BDBDBD"/>
<g id="Group_2" opacity="0.1">
<path id="Vector_3" opacity="0.1" d="M410.79 380H560.96C562.77 372.13 564.22 367 564.22 367H407.22C407.22 367 408.83 372.11 410.79 380Z" fill="black"/>
</g>
<path id="Vector_4" d="M235.82 3H735.62C739.89 3 743.985 4.69625 747.004 7.71558C750.024 10.7349 751.72 14.83 751.72 19.1V327H219.72V19.1C219.72 14.83 221.416 10.7349 224.436 7.71558C227.455 4.69625 231.55 3 235.82 3V3Z" fill="#535461"/>
<path id="Vector_5" d="M735.62 377H235.82C231.55 377 227.455 375.304 224.436 372.284C221.416 369.265 219.72 365.17 219.72 360.9V327H751.72V360.9C751.72 365.17 750.024 369.265 747.004 372.284C743.985 375.304 739.89 377 735.62 377V377Z" fill="#BDBDBD"/>
<path id="Vector_6" d="M485.72 361C490.691 361 494.72 356.971 494.72 352C494.72 347.029 490.691 343 485.72 343C480.749 343 476.72 347.029 476.72 352C476.72 356.971 480.749 361 485.72 361Z" fill="#535461"/>
<path id="Vector_7" d="M641.99 72.5H329.45C326.965 72.5 324.95 74.5147 324.95 77V251.96C324.95 254.445 326.965 256.46 329.45 256.46H641.99C644.475 256.46 646.49 254.445 646.49 251.96V77C646.49 74.5147 644.475 72.5 641.99 72.5Z" fill="white"/>
<path id="Vector_8" d="M399.89 436H571.55C573.717 436 575.795 436.861 577.327 438.393C578.859 439.925 579.72 442.003 579.72 444.17V456H391.72V444.17C391.72 443.097 391.931 442.035 392.342 441.043C392.752 440.052 393.354 439.152 394.113 438.393C394.872 437.634 395.772 437.032 396.763 436.622C397.755 436.211 398.817 436 399.89 436V436Z" fill="#BDBDBD"/>
<g id="Group_3" opacity="0.5">
<path id="Vector_9" opacity="0.5" d="M646.22 71.12H325.22C322.735 71.12 320.72 73.1347 320.72 75.62V254.38C320.72 256.865 322.735 258.88 325.22 258.88H646.22C648.705 258.88 650.72 256.865 650.72 254.38V75.62C650.72 73.1347 648.705 71.12 646.22 71.12Z" fill="url(#paint1_linear)"/>
</g>
<g id="Text1">
<g id="Group_4" opacity="0.5">
<path id="Vector_10" opacity="0.5" d="M445.46 98.91H419.02C416.535 98.91 414.52 100.925 414.52 103.41V126.31C414.52 128.795 416.535 130.81 419.02 130.81H445.46C447.945 130.81 449.96 128.795 449.96 126.31V103.41C449.96 100.925 447.945 98.91 445.46 98.91Z" fill="#FAAD17"/>
</g>
<path id="Vector_11" d="M554.51 98.91H462.36C461.382 98.91 460.59 99.7025 460.59 100.68C460.59 101.658 461.382 102.45 462.36 102.45H554.51C555.488 102.45 556.28 101.658 556.28 100.68C556.28 99.7025 555.488 98.91 554.51 98.91Z" fill="#E0E0E0"/>
<path id="Vector_12" d="M538.36 109.55H462.36C461.382 109.55 460.59 110.342 460.59 111.32C460.59 112.298 461.382 113.09 462.36 113.09H538.36C539.338 113.09 540.13 112.298 540.13 111.32C540.13 110.342 539.338 109.55 538.36 109.55Z" fill="#E0E0E0"/>
</g>
<g id="Text2">
<g id="Group_5" opacity="0.5">
<path id="Vector_13" opacity="0.5" d="M445.46 148.53H419.02C416.535 148.53 414.52 150.545 414.52 153.03V175.93C414.52 178.415 416.535 180.43 419.02 180.43H445.46C447.945 180.43 449.96 178.415 449.96 175.93V153.03C449.96 150.545 447.945 148.53 445.46 148.53Z" fill="#FAAD17"/>
</g>
<path id="Vector_14" d="M554.51 148.53H462.36C461.382 148.53 460.59 149.322 460.59 150.3C460.59 151.278 461.382 152.07 462.36 152.07H554.51C555.488 152.07 556.28 151.278 556.28 150.3C556.28 149.322 555.488 148.53 554.51 148.53Z" fill="#E0E0E0"/>
<path id="Vector_15" d="M554.51 159.16H462.36C461.382 159.16 460.59 159.952 460.59 160.93C460.59 161.908 461.382 162.7 462.36 162.7H554.51C555.488 162.7 556.28 161.908 556.28 160.93C556.28 159.952 555.488 159.16 554.51 159.16Z" fill="#E0E0E0"/>
</g>
<g id="Text3">
<g id="Group_6" opacity="0.5">
<path id="Vector_16" opacity="0.5" d="M445.46 198.15H419.02C416.535 198.15 414.52 200.165 414.52 202.65V225.55C414.52 228.035 416.535 230.05 419.02 230.05H445.46C447.945 230.05 449.96 228.035 449.96 225.55V202.65C449.96 200.165 447.945 198.15 445.46 198.15Z" fill="#FAAD17"/>
</g>
<path id="Vector_17" d="M554.51 198.15H462.36C461.382 198.15 460.59 198.942 460.59 199.92C460.59 200.898 461.382 201.69 462.36 201.69H554.51C555.488 201.69 556.28 200.898 556.28 199.92C556.28 198.942 555.488 198.15 554.51 198.15Z" fill="#E0E0E0"/>
<path id="Vector_18" d="M555.33 208.78H462.18C461.302 208.78 460.59 209.492 460.59 210.37V210.73C460.59 211.608 461.302 212.32 462.18 212.32H555.33C556.208 212.32 556.92 211.608 556.92 210.73V210.37C556.92 209.492 556.208 208.78 555.33 208.78Z" fill="#E0E0E0"/>
</g>
<path id="Vector_19" d="M485.72 42V20" stroke="#6C63FF" stroke-width="2" stroke-miterlimit="10"/>
<path id="Vector_20" d="M485.72 79V50.13" stroke="#FAAD17" stroke-width="2" stroke-miterlimit="10"/>
<path id="Vector_21" d="M485.72 83C487.929 83 489.72 81.2091 489.72 79C489.72 76.7909 487.929 75 485.72 75C483.511 75 481.72 76.7909 481.72 79C481.72 81.2091 483.511 83 485.72 83Z" fill="#FAAD17"/>
<path id="Vector_22" d="M485.72 50C487.929 50 489.72 48.2091 489.72 46C489.72 43.7909 487.929 42 485.72 42C483.511 42 481.72 43.7909 481.72 46C481.72 48.2091 483.511 50 485.72 50Z" stroke="white" stroke-miterlimit="10"/>
<path id="Vector_23" d="M485.72 42V20" stroke="#FAAD17" stroke-width="2" stroke-miterlimit="10"/>
<path id="Vector_24" d="M485.72 79V50.13" stroke="#FAAD17" stroke-width="2" stroke-miterlimit="10"/>
<path id="Vector_25" d="M485.72 83C487.929 83 489.72 81.2091 489.72 79C489.72 76.7909 487.929 75 485.72 75C483.511 75 481.72 76.7909 481.72 79C481.72 81.2091 483.511 83 485.72 83Z" fill="#FAAD17"/>
<path id="Vector_26" d="M485.72 50C487.929 50 489.72 48.2091 489.72 46C489.72 43.7909 487.929 42 485.72 42C483.511 42 481.72 43.7909 481.72 46C481.72 48.2091 483.511 50 485.72 50Z" stroke="white" stroke-miterlimit="10"/>
<path id="Vector_27" d="M485.72 279V310" stroke="#FAAD17" stroke-width="2" stroke-miterlimit="10"/>
<path id="Vector_28" d="M485.72 251V279.87" stroke="#FAAD17" stroke-width="2" stroke-miterlimit="10"/>
<path id="Vector_29" d="M485.72 255C487.929 255 489.72 253.209 489.72 251C489.72 248.791 487.929 247 485.72 247C483.511 247 481.72 248.791 481.72 251C481.72 253.209 483.511 255 485.72 255Z" fill="#FAAD17"/>
<path id="Vector_30" d="M305.72 168.5H274.22" stroke="#FAAD17" stroke-width="2" stroke-miterlimit="10"/>
<path id="Vector_31" d="M333.22 168.5H304.35" stroke="#FAAD17" stroke-width="2" stroke-miterlimit="10"/>
<path id="Vector_32" d="M333.22 172.5C335.429 172.5 337.22 170.709 337.22 168.5C337.22 166.291 335.429 164.5 333.22 164.5C331.011 164.5 329.22 166.291 329.22 168.5C329.22 170.709 331.011 172.5 333.22 172.5Z" fill="#FAAD17"/>
<g id="Group_7" opacity="0.1">
<path id="Vector_33" opacity="0.1" d="M564.22 435.5H408.22V438.5H564.22V435.5Z" fill="black"/>
</g>
<g id="Group_8" opacity="0.7">
<path id="Vector_34" opacity="0.7" d="M179.2 367.06H106.8L107.8 358.92C128.26 340.55 141.49 291.61 141.49 291.61C141.196 291.651 140.906 291.711 140.62 291.79C128.62 294.21 120.08 299.14 114.11 305.07L116.65 283.41C154.45 275.27 169.44 225.27 169.44 225.27C145.32 230.62 130.28 238.9 120.94 246.76L124.66 214.94C150.22 223.71 176.66 177.12 176.66 177.12L175.66 176.91L176.16 176.59L175.4 176.86C147.15 170.77 132.05 186.92 127.15 193.63L127.52 190.51C126.773 192.51 126.047 194.47 125.34 196.39V196.47C123.34 201.89 121.51 207.243 119.85 212.53C118.403 217.043 117.05 221.51 115.79 225.93V225.87C115.79 225.87 114.62 197.41 84.61 189.92C84.61 189.92 87.76 251.99 111.54 241.83C109.34 250.83 107.54 259.49 105.98 267.9C104.987 273.373 104.12 278.707 103.38 283.9L103.24 284.06L103.38 283.94L103.32 284.35C102.653 289.063 102.087 293.657 101.62 298.13C102.08 289.51 100.51 264.61 71.17 241.21C71.17 241.21 32.17 309.75 98.67 323.21C98.82 323.34 98.97 323.47 99.11 323.59L99.01 323.28L99.61 323.41L99.88 319.89C99.0783 334.581 99.1551 349.308 100.11 363.99V363.99C100.18 364.99 100.25 365.99 100.32 366.94H27.09C-0.850019 424.73 42.61 456.4 42.61 456.4H162.61C209.21 397.66 179.2 367.06 179.2 367.06Z" fill="url(#paint2_linear)"/>
</g>
<path id="Vector_35" opacity="0.6" d="M102.72 389C102.72 389 83.72 306 125.72 199" stroke="#535461" stroke-width="3" stroke-miterlimit="10"/>
<path id="Vector_36" d="M28.72 364H175.72C175.72 364 204.72 401 159.72 456H43.72C43.72 456 1.71998 418 28.72 364Z" fill="#FAAD17"/>
<path id="Vector_37" d="M123.61 204.5C123.61 204.5 138.22 178.5 173.22 186.5C173.22 186.5 144.29 235.76 118.22 219.63L123.61 204.5Z" fill="#4DB6AC"/>
<path id="Vector_38" d="M114.35 232.09C114.35 232.09 113.22 205.5 84.22 198.5C84.22 198.5 87.22 256.5 110.22 247L114.35 232.09Z" fill="#4DB6AC"/>
<path id="Vector_39" d="M104.87 271.36C104.87 271.36 110.22 243.5 166.22 231.5C166.22 231.5 148.36 289.12 102.29 286.81L104.87 271.36Z" fill="#4DB6AC"/>
<path id="Vector_40" d="M100.33 302.63C100.33 302.63 106.22 273.5 71.22 246.5C71.22 246.5 33.22 311.17 98.7 323.33L100.33 302.63Z" fill="#4DB6AC"/>
<path id="Vector_41" d="M99.28 342.67C99.28 342.67 95.22 301.5 139.22 293.5C139.22 293.5 123.15 350.99 99.22 361.24L99.28 342.67Z" fill="#4DB6AC"/>
<path id="Vector_42" opacity="0.3" d="M118.72 220C118.72 220 156.72 191 172.72 186" stroke="#535461" stroke-miterlimit="10"/>
<path id="Vector_43" opacity="0.3" d="M102.22 286.5C102.22 286.5 148.22 237.5 166.22 231.5" stroke="#535461" stroke-miterlimit="10"/>
<path id="Vector_44" opacity="0.3" d="M84.22 198.5C84.22 198.5 112.22 236.5 110.22 246.5" stroke="#535461" stroke-miterlimit="10"/>
<path id="Vector_45" opacity="0.3" d="M71.22 246.5C71.22 246.5 86.22 314.5 98.22 323.5" stroke="#535461" stroke-miterlimit="10"/>
<path id="Vector_46" opacity="0.3" d="M99.22 361.5C99.22 361.5 123.22 295.5 139.22 293.5" stroke="#535461" stroke-miterlimit="10"/>
<g id="Group_9" opacity="0.1">
<path id="Vector_47" opacity="0.1" d="M175.72 364H28.72C28.39 364.67 28.07 365.34 27.72 366H170.72C170.72 366 199.01 402.11 156.32 456H159.72C204.72 401 175.72 364 175.72 364Z" fill="black"/>
</g>
<path id="Vector_48" d="M971.44 455.6H0V488.53H971.44V455.6Z" fill="#E0E0E0"/>
<path id="Vector_49" d="M930.27 488.53H41.16V502H930.27V488.53Z" fill="#E0E0E0"/>
<path id="Vector_50" opacity="0.1" d="M930.27 488.53H41.16V493.02H930.27V488.53Z" fill="black"/>
<path id="Vector_51" d="M690.22 168.5H696.22" stroke="#FAAD17" stroke-width="2" stroke-miterlimit="10"/>
<path id="Vector_52" d="M637.22 168.5H682.1" stroke="#FAAD17" stroke-width="2" stroke-miterlimit="10"/>
<path id="Vector_53" d="M637.22 172.5C639.429 172.5 641.22 170.709 641.22 168.5C641.22 166.291 639.429 164.5 637.22 164.5C635.011 164.5 633.22 166.291 633.22 168.5C633.22 170.709 635.011 172.5 637.22 172.5Z" fill="#FAAD17"/>
<path id="Vector_54" d="M686.22 172.5C688.429 172.5 690.22 170.709 690.22 168.5C690.22 166.291 688.429 164.5 686.22 164.5C684.011 164.5 682.22 166.291 682.22 168.5C682.22 170.709 684.011 172.5 686.22 172.5Z" stroke="white" stroke-miterlimit="10"/>
<g id="Pen1">
<g id="Group_10" opacity="0.7">
<path id="Vector_55" opacity="0.7" d="M912.72 444.88L912.82 444.73C913.027 444.41 913.23 444.077 913.43 443.73L913.54 443.54C913.733 443.213 913.917 442.88 914.09 442.54L914.18 442.37C914.38 441.98 914.57 441.59 914.74 441.18C915.1 440.362 915.414 439.524 915.68 438.67L915.78 438.34C915.87 438.03 915.96 437.72 916.04 437.41L916.14 436.97C916.207 436.69 916.267 436.407 916.32 436.12C916.32 435.96 916.38 435.8 916.41 435.64C916.44 435.48 916.5 435.08 916.54 434.79C916.58 434.5 916.54 434.46 916.6 434.3C916.66 434.14 916.66 433.69 916.68 433.38C916.68 433.24 916.68 433.09 916.68 432.95C916.68 432.5 916.68 432.04 916.68 431.59V349H902.83V308.52H885.83V349H874.11V290.86H857.11V349H850.72V282.55H833.72V349H818.72V431.6C818.72 445.08 829.93 456 843.72 456H891.72C895.644 456.016 899.518 455.114 903.032 453.367C906.546 451.621 909.603 449.077 911.96 445.94V445.94C912.207 445.587 912.46 445.233 912.72 444.88Z" fill="url(#paint3_linear)"/>
</g>
<path id="Vector_56" d="M851.72 321H835.72V421H851.72V321Z" fill="#535461"/>
<path id="Vector_57" d="M851.72 288H835.72V321H851.72V288Z" fill="#3AD29F"/>
</g>
<g id="Pen2">
<path id="Vector_58" d="M900.72 346H884.72V446H900.72V346Z" fill="#535461"/>
<path id="Vector_59" d="M900.72 313H884.72V346H900.72V313Z" fill="#F55F44"/>
</g>
<g id="Pen3">
<path id="Vector_60" d="M873.72 329H857.72V429H873.72V329Z" fill="#535461"/>
<path id="Vector_61" d="M873.72 296H857.72V329H873.72V296Z" fill="#4D8AF0"/>
</g>
<path id="Vector_62" d="M821.72 352H913.72V431.5C913.72 437.733 911.244 443.71 906.837 448.117C902.43 452.524 896.453 455 890.22 455H845.22C838.987 455 833.01 452.524 828.603 448.117C824.196 443.71 821.72 437.733 821.72 431.5V352Z" fill="#FAAD17"/>
<g id="Group_11" opacity="0.1">
<path id="Vector_63" opacity="0.1" d="M821.72 352V356H909.72V435.5C909.728 440.755 907.967 445.859 904.72 449.99C907.526 447.794 909.795 444.988 911.355 441.784C912.914 438.58 913.723 435.063 913.72 431.5V352H821.72Z" fill="black"/>
</g>
</g>
<defs>
<linearGradient id="paint0_linear" x1="485.22" y1="469.05" x2="485.22" y2="0" gradientUnits="userSpaceOnUse">
<stop stop-color="#808080" stop-opacity="0.25"/>
<stop offset="0.54" stop-color="#808080" stop-opacity="0.12"/>
<stop offset="1" stop-color="#808080" stop-opacity="0.1"/>
</linearGradient>
<linearGradient id="paint1_linear" x1="160608" y1="48678.4" x2="160608" y2="13424.6" gradientUnits="userSpaceOnUse">
<stop stop-color="#808080" stop-opacity="0.25"/>
<stop offset="0.54" stop-color="#808080" stop-opacity="0.12"/>
<stop offset="1" stop-color="#808080" stop-opacity="0.1"/>
</linearGradient>
<linearGradient id="paint2_linear" x1="22588.2" y1="144832" x2="51827.1" y2="144832" gradientUnits="userSpaceOnUse">
<stop stop-color="#808080" stop-opacity="0.25"/>
<stop offset="0.54" stop-color="#808080" stop-opacity="0.12"/>
<stop offset="1" stop-color="#808080" stop-opacity="0.1"/>
</linearGradient>
<linearGradient id="paint3_linear" x1="92215.4" y1="98850.8" x2="101815" y2="98850.8" gradientUnits="userSpaceOnUse">
<stop stop-color="#808080" stop-opacity="0.25"/>
<stop offset="0.54" stop-color="#808080" stop-opacity="0.12"/>
<stop offset="1" stop-color="#808080" stop-opacity="0.1"/>
</linearGradient>
<clipPath id="clip0">
<rect width="971.44" height="502" fill="white"/>
</clipPath>
</defs>
</svg>
